<svg width="24" height="25" viewBox="0 0 24 25" fill="none" xmlns="http://www.w3.org/2000/svg">
<g clip-path="url(#clip0_71_65)">
<path d="M12 5.5C15.679 5.5 20.162 7.917 21.73 11.401C21.876 11.729 22 12.111 22 12.5C22 12.888 21.877 13.271 21.73 13.599C20.161 17.083 15.678 19.5 12 19.5C8.321 19.5 3.838 17.083 2.27 13.599C2.124 13.27 2 12.889 2 12.5C2 12.112 2.123 11.729 2.27 11.401C3.839 7.917 8.322 5.5 12 5.5ZM12 8.5C10.9391 8.5 9.92172 8.92143 9.17157 9.67157C8.42143 10.4217 8 11.4391 8 12.5C8 13.5609 8.42143 14.5783 9.17157 15.3284C9.92172 16.0786 10.9391 16.5 12 16.5C13.0609 16.5 14.0783 16.0786 14.8284 15.3284C15.5786 14.5783 16 13.5609 16 12.5C16 11.4391 15.5786 10.4217 14.8284 9.67157C14.0783 8.92143 13.0609 8.5 12 8.5ZM12 10.5C12.5304 10.5 13.0391 10.7107 13.4142 11.0858C13.7893 11.4609 14 11.9696 14 12.5C14 13.0304 13.7893 13.5391 13.4142 13.9142C13.0391 14.2893 12.5304 14.5 12 14.5C11.4696 14.5 10.9609 14.2893 10.5858 13.9142C10.2107 13.5391 10 13.0304 10 12.5C10 11.9696 10.2107 11.4609 10.5858 11.0858C10.9609 10.7107 11.4696 10.5 12 10.5Z" fill="white"/>
</g>
<defs>
<clipPath id="clip0_71_65">
<rect width="24" height="24" fill="white" transform="translate(0 0.5)"/>
</clipPath>
</defs>
</svg>
