<svg width="24" height="25" viewBox="0 0 24 25" fill="none" xmlns="http://www.w3.org/2000/svg">
<g clip-path="url(#clip0_71_59)">
<path d="M16 14.5C17.3261 14.5 18.5979 15.0268 19.5355 15.9645C20.4732 16.9021 21 18.1739 21 19.5V20.5C21 21.0304 20.7893 21.5391 20.4142 21.9142C20.0391 22.2893 19.5304 22.5 19 22.5H5C4.46957 22.5 3.96086 22.2893 3.58579 21.9142C3.21071 21.5391 3 21.0304 3 20.5V19.5C3 18.1739 3.52678 16.9021 4.46447 15.9645C5.40215 15.0268 6.67392 14.5 8 14.5H16ZM21.414 9.581C21.5935 9.39975 21.8356 9.29397 22.0905 9.28532C22.3455 9.27667 22.5942 9.3658 22.7856 9.53447C22.977 9.70313 23.0967 9.93858 23.1202 10.1926C23.1437 10.4467 23.0692 10.7001 22.912 10.901L22.828 10.996L20 13.824C19.8278 13.9962 19.5987 14.0996 19.3557 14.1149C19.1127 14.1302 18.8724 14.0563 18.68 13.907L18.586 13.824L17.172 12.41C16.9907 12.2305 16.885 11.9884 16.8763 11.7335C16.8677 11.4785 16.9568 11.2298 17.1255 11.0384C17.2941 10.847 17.5296 10.7273 17.7836 10.7038C18.0377 10.6803 18.2911 10.7548 18.492 10.912L18.586 10.996L19.293 11.703L21.414 9.581ZM12 2.5C13.3261 2.5 14.5979 3.02678 15.5355 3.96447C16.4732 4.90215 17 6.17392 17 7.5C17 8.82608 16.4732 10.0979 15.5355 11.0355C14.5979 11.9732 13.3261 12.5 12 12.5C10.6739 12.5 9.40215 11.9732 8.46447 11.0355C7.52678 10.0979 7 8.82608 7 7.5C7 6.17392 7.52678 4.90215 8.46447 3.96447C9.40215 3.02678 10.6739 2.5 12 2.5Z" fill="white"/>
</g>
<defs>
<clipPath id="clip0_71_59">
<rect width="24" height="24" fill="white" transform="translate(0 0.5)"/>
</clipPath>
</defs>
</svg>
